# Blender v2.78 (sub 0) OBJ File: ''
# www.blender.org
mtllib Crate.mtl
o Crate_1_Cube.002
v -3.647384 0.253430 3.647385
v -3.647384 8.714242 3.647383
v -3.647384 0.253429 -3.647383
v -3.647384 8.714240 -3.647385
v 3.647384 0.253430 3.647385
v 3.647384 8.714242 3.647383
v 3.647384 0.253429 -3.647383
v 3.647384 8.714240 -3.647385
v 3.426798 0.857227 3.888162
v 3.909083 1.339512 3.888162
v 3.426798 0.857227 3.251685
v 3.909083 1.339512 3.251685
v -3.909083 8.193109 3.888161
v -3.426798 8.675393 3.888161
v -3.909083 8.193109 3.251685
v -3.426798 8.675393 3.251684
v -3.426798 0.647156 3.916816
v -3.909083 1.129441 3.916816
v -3.426798 0.647156 3.280340
v -3.909083 1.129441 3.280340
v 3.909083 7.983037 3.916815
v 3.426798 8.465322 3.916815
v 3.909083 7.983037 3.280338
v 3.426798 8.465322 3.280338
v 3.430371 8.936040 3.312550
v 3.430371 8.266404 3.312550
v 3.430371 8.936040 3.982186
v 3.430371 8.266404 3.982186
v -3.430372 8.936040 3.312550
v -3.430372 8.266404 3.312550
v -3.430372 8.936040 3.982186
v -3.430372 8.266404 3.982186
v 3.430371 0.232180 3.312552
v 3.430371 0.901815 3.312551
v 3.430371 0.232180 3.982187
v 3.430371 0.901815 3.982187
v -3.430372 0.232180 3.312552
v -3.430372 0.901815 3.312551
v -3.430372 0.232180 3.982187
v -3.430372 0.901815 3.982187
v 3.426798 0.857226 -3.888161
v 3.909083 1.339511 -3.888161
v 3.426798 0.857226 -3.251684
v 3.909083 1.339511 -3.251684
v -3.909083 8.193107 -3.888163
v -3.426798 8.675391 -3.888162
v -3.909083 8.193107 -3.251686
v -3.426798 8.675391 -3.251686
v -3.426798 0.647155 -3.916815
v -3.909083 1.129440 -3.916816
v -3.426798 0.647155 -3.280339
v -3.909083 1.129440 -3.280339
v 3.909083 7.983036 -3.916816
v 3.426798 8.465320 -3.916816
v 3.909083 7.983036 -3.280339
v 3.426798 8.465320 -3.280339
v 3.430371 8.936038 -3.312552
v 3.430371 8.266402 -3.312552
v 3.430371 8.936038 -3.982187
v 3.430371 8.266402 -3.982187
v -3.430372 8.936038 -3.312552
v -3.430372 8.266402 -3.312552
v -3.430372 8.936038 -3.982187
v -3.430372 8.266402 -3.982187
v 3.430371 0.232179 -3.312550
v 3.430371 0.901813 -3.312551
v 3.430371 0.232179 -3.982186
v 3.430371 0.901813 -3.982186
v -3.430372 0.232179 -3.312550
v -3.430372 0.901813 -3.312551
v -3.430372 0.232179 -3.982186
v -3.430372 0.901813 -3.982186
v -3.888162 0.924132 3.366528
v -3.888162 1.397935 3.840330
v -3.251685 0.924132 3.366528
v -3.251685 1.397935 3.840330
v -3.888162 8.130988 -3.840331
v -3.888162 8.604791 -3.366528
v -3.251685 8.130988 -3.840331
v -3.251685 8.604791 -3.366528
v -3.916816 0.717755 -3.366527
v -3.916816 1.191557 -3.840329
v -3.280339 0.717755 -3.366527
v -3.280339 1.191557 -3.840329
v -3.916816 7.924614 3.840329
v -3.916816 8.398416 3.366527
v -3.280339 7.924614 3.840329
v -3.280339 8.398416 3.366527
v -4.051655 8.692708 3.316941
v -4.051655 8.692708 4.015487
v -3.353108 8.692708 3.316941
v -3.353108 8.692708 4.015487
v -4.173007 9.071845 4.056879
v -4.173007 8.130599 4.056879
v -3.231757 9.071845 4.056879
v -3.231757 8.130599 4.056879
v -4.051655 8.692706 -3.316942
v -4.051655 8.692706 -4.015488
v -3.353108 8.692706 -3.316942
v -3.353108 8.692706 -4.015488
v -4.173007 9.071843 -4.056880
v -4.173007 8.130597 -4.056880
v -3.231757 9.071843 -4.056880
v -3.231757 8.130597 -4.056880
v -4.051655 0.475511 3.316942
v -4.051655 0.475511 4.015488
v -3.353108 0.475511 3.316942
v -3.353108 0.475511 4.015488
v -4.173007 0.096374 4.056880
v -4.173007 1.037621 4.056880
v -3.231757 0.096374 4.056880
v -3.231757 1.037621 4.056880
v -4.051655 0.475510 -3.316941
v -4.051655 0.475510 -4.015486
v -3.353108 0.475510 -3.316941
v -3.353108 0.475510 -4.015486
v -4.173007 0.096372 -4.056878
v -4.173007 1.037620 -4.056878
v -3.231757 0.096372 -4.056878
v -3.231757 1.037620 -4.056878
v 3.888161 0.924132 3.366528
v 3.888161 1.397935 3.840330
v 3.251685 0.924132 3.366528
v 3.251685 1.397935 3.840330
v 3.888161 8.130988 -3.840331
v 3.888161 8.604791 -3.366528
v 3.251685 8.130988 -3.840331
v 3.251685 8.604791 -3.366528
v 3.916815 0.717755 -3.366527
v 3.916815 1.191557 -3.840329
v 3.280339 0.717755 -3.366527
v 3.280339 1.191557 -3.840329
v 3.916815 7.924614 3.840329
v 3.916815 8.398416 3.366527
v 3.280339 7.924614 3.840329
v 3.280339 8.398416 3.366527
v 4.051654 8.692708 3.316941
v 4.051654 8.692708 4.015487
v 3.353108 8.692708 3.316941
v 3.353108 8.692708 4.015487
v 4.173006 9.071845 4.056879
v 4.173006 8.130599 4.056879
v 3.231756 9.071845 4.056879
v 3.231756 8.130599 4.056879
v 4.051654 8.692706 -3.316942
v 4.051654 8.692706 -4.015488
v 3.353108 8.692706 -3.316942
v 3.353108 8.692706 -4.015488
v 4.173006 9.071843 -4.056880
v 4.173006 8.130597 -4.056880
v 3.231756 9.071843 -4.056880
v 3.231756 8.130597 -4.056880
v 4.051654 0.475511 3.316942
v 4.051654 0.475511 4.015488
v 3.353108 0.475511 3.316942
v 3.353108 0.475511 4.015488
v 4.173006 0.096374 4.056880
v 4.173006 1.037621 4.056880
v 3.231756 0.096374 4.056880
v 3.231756 1.037621 4.056880
v 4.051654 0.475510 -3.316941
v 4.051654 0.475510 -4.015486
v 3.353108 0.475510 -3.316941
v 3.353108 0.475510 -4.015486
v 4.173006 0.096372 -4.056878
v 4.173006 1.037620 -4.056878
v 3.231756 0.096372 -4.056878
v 3.231756 1.037620 -4.056878
vt 0.3994 0.0050
vt 0.0069 0.0050
vt 0.0069 0.3975
vt 0.3994 0.3975
vt 0.3994 0.0050
vt 0.0069 0.0050
vt 0.0069 0.3975
vt 0.3994 0.3975
vt 0.3994 0.0050
vt 0.0069 0.0050
vt 0.0069 0.3975
vt 0.3994 0.3975
vt 0.3994 0.0050
vt 0.0069 0.0050
vt 0.0069 0.3975
vt 0.3994 0.3975
vt 0.0069 0.0050
vt 0.0069 0.3975
vt 0.3994 0.0050
vt 0.3994 0.3975
vt 0.4416 0.1918
vt 0.4416 0.1563
vt 0.9819 0.1563
vt 0.9819 0.1918
vt 0.4416 0.1207
vt 0.9819 0.1207
vt 0.4436 0.2310
vt 0.9819 0.2273
vt 0.4416 0.0495
vt 0.9819 0.0495
vt 0.9819 0.0850
vt 0.4416 0.0850
vt 0.9819 0.1207
vt 0.4416 0.1207
vt 0.4416 0.0139
vt 0.9819 0.0139
vt 0.7278 0.9927
vt 0.0182 0.9927
vt 0.0182 0.9234
vt 0.7278 0.9234
vt 0.7278 0.7849
vt 0.0182 0.7849
vt 0.0182 0.7156
vt 0.7278 0.7156
vt 0.7278 0.8542
vt 0.0182 0.8542
vt 0.7278 0.7848
vt 0.0182 0.7848
vt 0.0182 0.7155
vt 0.7278 0.7155
vt 0.7278 0.9926
vt 0.0182 0.9926
vt 0.0182 0.9233
vt 0.7278 0.9233
vt 0.0182 0.8540
vt 0.7278 0.8540
vt 0.4416 0.1918
vt 0.9819 0.1918
vt 0.9819 0.1563
vt 0.4416 0.1563
vt 0.9819 0.1207
vt 0.4416 0.1207
vt 0.4436 0.2310
vt 0.9819 0.2273
vt 0.4416 0.0495
vt 0.4416 0.0850
vt 0.9819 0.0850
vt 0.9819 0.0495
vt 0.4416 0.1207
vt 0.9819 0.1207
vt 0.4416 0.0139
vt 0.9819 0.0139
vt 0.7278 0.9927
vt 0.7278 0.9234
vt 0.0182 0.9234
vt 0.0182 0.9927
vt 0.7278 0.7849
vt 0.7278 0.7156
vt 0.0182 0.7156
vt 0.0182 0.7849
vt 0.7278 0.8542
vt 0.0182 0.8542
vt 0.7278 0.7848
vt 0.7278 0.7155
vt 0.0182 0.7155
vt 0.0182 0.7848
vt 0.7278 0.9926
vt 0.7278 0.9233
vt 0.0182 0.9233
vt 0.0182 0.9926
vt 0.7278 0.8540
vt 0.0182 0.8540
vt 0.4416 0.1918
vt 0.4416 0.1563
vt 0.9819 0.1563
vt 0.9819 0.1918
vt 0.4416 0.1207
vt 0.9819 0.1207
vt 0.4436 0.2310
vt 0.9819 0.2273
vt 0.9819 0.0850
vt 0.4416 0.0850
vt 0.4416 0.0495
vt 0.9819 0.0495
vt 0.4416 0.0139
vt 0.9819 0.0139
vt 0.9819 0.1207
vt 0.4416 0.1207
vt 0.9878 0.3437
vt 0.4426 0.3437
vt 0.4426 0.2974
vt 0.9878 0.2974
vt 0.4386 0.2477
vt 0.9878 0.2510
vt 0.9878 0.4364
vt 0.4426 0.4364
vt 0.4426 0.3901
vt 0.9878 0.3901
vt 0.9293 0.5804
vt 0.4093 0.5804
vt 0.4093 0.6407
vt 0.9293 0.6407
vt 0.4093 0.7010
vt 0.9293 0.7010
vt 0.9293 0.4597
vt 0.4093 0.4597
vt 0.4093 0.5200
vt 0.9293 0.5200
vt 0.9878 0.3437
vt 0.4426 0.3437
vt 0.4426 0.2974
vt 0.9878 0.2974
vt 0.9896 0.6407
vt 0.9896 0.5804
vt 0.9878 0.3901
vt 0.4426 0.3901
vt 0.9878 0.4364
vt 0.4426 0.4364
vt 0.4386 0.2477
vt 0.9878 0.2510
vt 0.9293 0.6407
vt 0.4093 0.6407
vt 0.4093 0.5804
vt 0.9293 0.5804
vt 0.3489 0.6407
vt 0.3489 0.5804
vt 0.9293 0.7010
vt 0.4093 0.7010
vt 0.9293 0.5200
vt 0.4093 0.5200
vt 0.4093 0.4597
vt 0.9293 0.4597
vt 0.9896 0.6407
vt 0.9896 0.5804
vt 0.3489 0.6407
vt 0.3489 0.5804
vt 0.4416 0.1918
vt 0.9819 0.1918
vt 0.9819 0.1563
vt 0.4416 0.1563
vt 0.9819 0.1207
vt 0.4416 0.1207
vt 0.4436 0.2310
vt 0.9819 0.2273
vt 0.9819 0.0850
vt 0.9819 0.0495
vt 0.4416 0.0495
vt 0.4416 0.0850
vt 0.9819 0.0139
vt 0.4416 0.0139
vt 0.9819 0.1207
vt 0.4416 0.1207
vt 0.9878 0.3437
vt 0.9878 0.2974
vt 0.4426 0.2974
vt 0.4426 0.3437
vt 0.9878 0.2510
vt 0.4386 0.2477
vt 0.9878 0.4364
vt 0.9878 0.3901
vt 0.4426 0.3901
vt 0.4426 0.4364
vt 0.9293 0.5804
vt 0.9293 0.6407
vt 0.4093 0.6407
vt 0.4093 0.5804
vt 0.9293 0.7010
vt 0.4093 0.7010
vt 0.9293 0.4597
vt 0.9293 0.5200
vt 0.4093 0.5200
vt 0.4093 0.4597
vt 0.9878 0.3437
vt 0.9878 0.2974
vt 0.4426 0.2974
vt 0.4426 0.3437
vt 0.9896 0.6407
vt 0.9896 0.5804
vt 0.9878 0.3901
vt 0.4426 0.3901
vt 0.9878 0.4364
vt 0.4426 0.4364
vt 0.9878 0.2510
vt 0.4386 0.2477
vt 0.9293 0.6407
vt 0.9293 0.5804
vt 0.4093 0.5804
vt 0.4093 0.6407
vt 0.3489 0.6407
vt 0.3489 0.5804
vt 0.9293 0.7010
vt 0.4093 0.7010
vt 0.9293 0.5200
vt 0.9293 0.4597
vt 0.4093 0.4597
vt 0.4093 0.5200
vt 0.9896 0.6407
vt 0.9896 0.5804
vt 0.3489 0.6407
vt 0.3489 0.5804
vn -1.0000 -0.0000 0.0000
vn 0.0000 -0.0000 -1.0000
vn 1.0000 0.0000 0.0000
vn 0.0000 0.0000 1.0000
vn 0.0000 -1.0000 0.0000
vn 0.0000 1.0000 -0.0000
vn 0.7071 0.7071 0.0000
vn -0.7071 -0.7071 0.0000
vn -0.7071 0.7071 0.0000
vn 0.7071 -0.7071 -0.0000
vn 0.0000 0.7071 0.7071
vn 0.0000 -0.7071 -0.7071
vn 0.0000 0.7071 -0.7071
vn 0.0000 -0.7071 0.7071
usemtl Crate
s 1
f 1/1/1 2/2/1 4/3/1 3/4/1
f 3/5/2 4/6/2 8/7/2 7/8/2
f 7/9/3 8/10/3 6/11/3 5/12/3
f 5/13/4 6/14/4 2/15/4 1/16/4
f 3/5/5 7/17/5 5/18/5 1/16/5
f 8/19/6 4/6/6 2/15/6 6/20/6
f 9/21/4 10/22/4 14/23/4 13/24/4
f 10/22/7 12/25/7 16/26/7 14/23/7
f 11/27/8 9/21/8 13/24/8 15/28/8
f 17/29/4 21/30/4 22/31/4 18/32/4
f 18/32/9 22/31/9 24/33/9 20/34/9
f 19/35/10 23/36/10 21/30/10 17/29/10
f 26/37/2 30/38/2 29/39/2 25/40/2
f 28/41/5 32/42/5 30/43/5 26/44/5
f 27/45/4 31/46/4 32/42/4 28/41/4
f 25/40/6 29/39/6 31/46/6 27/45/6
f 33/47/2 37/48/2 38/49/2 34/50/2
f 34/51/6 38/52/6 40/53/6 36/54/6
f 36/54/4 40/53/4 39/55/4 35/56/4
f 35/56/5 39/55/5 37/48/5 33/47/5
f 41/57/2 45/58/2 46/59/2 42/60/2
f 42/60/7 46/59/7 48/61/7 44/62/7
f 43/63/8 47/64/8 45/58/8 41/57/8
f 49/65/2 50/66/2 54/67/2 53/68/2
f 50/66/9 52/69/9 56/70/9 54/67/9
f 51/71/10 49/65/10 53/68/10 55/72/10
f 58/73/4 57/74/4 61/75/4 62/76/4
f 60/77/5 58/78/5 62/79/5 64/80/5
f 59/81/2 60/77/2 64/80/2 63/82/2
f 57/74/6 59/81/6 63/82/6 61/75/6
f 65/83/4 66/84/4 70/85/4 69/86/4
f 66/87/6 68/88/6 72/89/6 70/90/6
f 68/88/2 67/91/2 71/92/2 72/89/2
f 67/91/5 65/83/5 69/86/5 71/92/5
f 73/93/1 74/94/1 78/95/1 77/96/1
f 74/94/11 76/97/11 80/98/11 78/95/11
f 75/99/12 73/93/12 77/96/12 79/100/12
f 81/101/1 85/102/1 86/103/1 82/104/1
f 82/104/13 86/103/13 88/105/13 84/106/13
f 83/107/14 87/108/14 85/102/14 81/101/14
f 90/109/4 106/110/4 108/111/4 92/112/4
f 92/112/3 108/111/3 107/113/3 91/114/3
f 91/115/2 107/116/2 105/117/2 89/118/2
f 93/119/1 101/120/1 102/121/1 94/122/1
f 94/122/5 102/121/5 104/123/5 96/124/5
f 96/125/3 104/126/3 103/127/3 95/128/3
f 95/128/6 103/127/6 101/120/6 93/119/6
f 98/129/1 114/130/1 113/131/1 97/132/1
f 96/133/4 95/134/4 93/119/4 94/122/4
f 100/135/2 116/136/2 114/130/2 98/129/2
f 99/137/3 115/138/3 116/136/3 100/135/3
f 97/132/4 113/131/4 115/139/4 99/140/4
f 110/141/1 118/142/1 117/143/1 109/144/1
f 104/145/2 102/121/2 101/120/2 103/146/2
f 112/147/6 120/148/6 118/142/6 110/141/6
f 111/149/3 119/150/3 120/151/3 112/152/3
f 109/144/5 117/143/5 119/150/5 111/149/5
f 112/153/4 110/141/4 109/144/4 111/154/4
f 89/118/1 105/117/1 106/110/1 90/109/1
f 120/155/2 119/156/2 117/143/2 118/142/2
f 121/157/3 125/158/3 126/159/3 122/160/3
f 122/160/11 126/159/11 128/161/11 124/162/11
f 123/163/12 127/164/12 125/158/12 121/157/12
f 129/165/3 130/166/3 134/167/3 133/168/3
f 130/166/13 132/169/13 136/170/13 134/167/13
f 131/171/14 129/165/14 133/168/14 135/172/14
f 138/173/4 140/174/4 156/175/4 154/176/4
f 140/174/1 139/177/1 155/178/1 156/175/1
f 139/179/2 137/180/2 153/181/2 155/182/2
f 141/183/3 142/184/3 150/185/3 149/186/3
f 142/184/5 144/187/5 152/188/5 150/185/5
f 144/189/1 143/190/1 151/191/1 152/192/1
f 143/190/6 141/183/6 149/186/6 151/191/6
f 146/193/3 145/194/3 161/195/3 162/196/3
f 144/197/4 142/184/4 141/183/4 143/198/4
f 148/199/2 146/193/2 162/196/2 164/200/2
f 147/201/1 148/199/1 164/200/1 163/202/1
f 145/194/4 147/203/4 163/204/4 161/195/4
f 158/205/3 157/206/3 165/207/3 166/208/3
f 152/209/2 151/210/2 149/186/2 150/185/2
f 160/211/6 158/205/6 166/208/6 168/212/6
f 159/213/1 160/214/1 168/215/1 167/216/1
f 157/206/5 159/213/5 167/216/5 165/207/5
f 160/217/4 159/218/4 157/206/4 158/205/4
f 137/180/3 138/173/3 154/176/3 153/181/3
f 168/219/2 166/208/2 165/207/2 167/220/2
